<?xml version="1.0"?>
<svg width="716.98969" height="587.49579" xmlns="http://www.w3.org/2000/svg" xmlns:svg="http://www.w3.org/2000/svg">
 <g class="layer">
  <title>Layer 1</title>
  <path d="m116,0c-0.42,0.01 -0.79,0.1 -1.16,0.22c-1.17,0.04 -1.91,0.48 -2.31,1.31c-2.03,1.47 -1.77,2.6 1.31,12.94c1.05,3.49 3.04,17.22 4.44,30.5c3.81,36.06 7.74,57.99 14.6,81.66c12.76,44.03 37.73,86.4 67.8,121.86c11.63,13.71 22.02,20.42 42.23,33.57s29.28,18.93 29.31,20c0.03,1.16 -9.68,6.14 -23,11.82l-10,4.25l-22.5,-0.03c-24.53,-0.04 -37.69,-1.66 -60.5,-7.44c-16.8,-4.26 -25.66,-8.31 -68.97,-31.44c-22.01,-11.75 -41.69,-21.97 -43.75,-22.69c-3.39,-1.19 -4.01,-1.1 -6.5,0.75c-3.92,2.91 -12.64,16 -15.25,22.94c-1.95,5.19 -2.15,7.25 -1.72,17.09c0.27,6.16 0.76,11.63 1.09,12.16c0.34,0.54 -0.18,0.75 -1.15,0.5c-2.79,-0.73 -10.71,5.24 -14.53,10.94c-5.07,7.54 -6.51,17.56 -4.66,32.34c1.12,8.9 2.04,12.24 5.09,18.38c2.06,4.12 5.32,9.03 7.25,10.9l3.5,3.41l-4.53,5.03c-2.49,2.78 -5.72,7.35 -7.18,10.12c-1.95,3.69 -2.49,5.35 -2.63,11.35c-0.57,3.53 -0.55,7.13 0,10.84c0.11,6.74 0.63,8.27 3.16,13.38c3.93,7.94 9,14.12 17.72,21.65c6.22,5.38 6.57,5.94 5.84,8.79c-0.43,1.66 -0.78,7.77 -0.78,13.56c0,9.85 0.22,10.93 3.25,17.09c5.52,11.21 14.67,18.28 32.19,24.88l9.56,3.59l1.31,4.47c0.71,2.44 2.34,6.46 3.63,8.94s3.07,7.07 3.97,10.22c2.25,7.86 9.36,16.17 19.81,23.12c9.76,6.49 22.18,12.62 25.75,12.72c0.23,0.01 0.51,0.04 0.78,0.06c0.4,0.14 0.77,0.25 1.12,0.35c1.66,0.45 2.9,0.78 3.94,1c2.28,0.69 4.39,0.48 8.38,-0.72c6.12,-1.85 11.21,-9.42 28.93,-43.22c24.64,-46.96 32.46,-60.08 44.57,-74.69c6.68,-8.06 12.81,-12.65 21.53,-16.09c7.39,-2.93 29.45,-3.63 42.62,-1.35c5.13,0.89 9.73,1.37 10.22,1.06s3.02,0.56 5.66,1.88s7.48,3.16 10.78,4.09s13.65,4.12 23,7.07c34.15,10.77 49.58,14.04 71.5,15.09c47.04,2.26 93.55,-12.45 123.84,-39.19c17.39,-15.35 29.32,-31.69 43.56,-59.65c13.49,-26.49 21.71,-48.87 30.94,-84.25c9.37,-35.95 17.62,-57.55 26.37,-69c7.68,-10.06 20.84,-16.55 37.94,-18.72c7.87,-1 11.16,-0.89 23.5,0.75c7.89,1.04 17.72,1.92 21.81,1.93c7.13,0.04 7.49,-0.07 8.1,-2.46c1.07,-4.2 -1.68,-7.7 -11.85,-15.16c-19.73,-14.48 -24.11,-19.2 -34.72,-37.28c-7.87,-13.43 -11.24,-16.89 -20.9,-21.56c-16.62,-8.04 -40.87,-10.81 -53.97,-6.13c-12.77,4.56 -26.22,13.6 -37.63,25.28c-10.46,10.73 -33.91,31.68 -41.5,37.06c-3.85,2.74 -9.99,6.49 -13.65,8.35c-9.78,7.52 -22.81,8.2 -33.31,7.56c-3.47,-0.55 -6.79,-1.32 -9.19,-2.5c-19.42,-9.54 -40.32,-21.84 -50.38,-41.69c-1.79,-3.54 -6.03,-13.21 -9.4,-21.5c-7.25,-17.8 -14.25,-28.86 -26.5,-41.75c-10.06,-10.57 -17.19,-14.99 -38.57,-24.06c-22.94,-9.73 -42.93,-16.24 -112.5,-36.59c-50.09,-14.66 -61.85,-18.87 -81.78,-29.22c-8.4,-4.37 -17.53,-8.62 -20.31,-9.44c-2.27,-0.68 -3.6,-1.01 -4.62,-1zm-90.28,311.62c0.55,0 1,0.42 1,0.94s-0.45,1.22 -1,1.56s-1,-0.08 -1,-0.94s0.45,-1.56 1,-1.56z" fill="#0000ff" id="svg_1"/>
  <path d="m660.19,161.83a18.76,18.76 0 1 1 -37.52,0a18.76,18.76 0 1 1 37.52,0z" fill="#fff" id="svg_2" transform="matrix(.5 0 0 .5 320.72 80.915)"/>
 </g>
</svg>